<svg xmlns="http://www.w3.org/2000/svg" viewBox="0 0 442.81 62.66"><defs><style>.cls-1,.cls-4{fill:#ba2026;}.cls-1,.cls-2{fill-rule:evenodd;}.cls-2,.cls-3{fill:#fff;}</style></defs><g id="Layer_2" data-name="Layer 2"><g id="Layer_1-2" data-name="Layer 1"><g id="daskeyboard"><path class="cls-1" d="M66.27,52.42H53.2a9.31,9.31,0,0,1-6.75-2.52,8.74,8.74,0,0,1-2.61-6.6V34a9.8,9.8,0,0,1,2.61-7,9,9,0,0,1,6.87-2.76l14.75.06c0,1.28,0,2.55,0,3.83H53.31A4.81,4.81,0,0,0,49.37,30a6.53,6.53,0,0,0-1.52,4.25v8.52a6,6,0,0,0,1.46,4.08,4.87,4.87,0,0,0,3.89,1.67H66.27a5.54,5.54,0,0,0,4-1.64,5.42,5.42,0,0,0,1.67-4V14.62h4V42.48a9.85,9.85,0,0,1-2.76,7,9.1,9.1,0,0,1-6.9,2.94"/><path class="cls-1" d="M107.5,36.37h-19a5.2,5.2,0,0,0-4.23,1.8,7,7,0,0,0-1.48,4.57,5.72,5.72,0,0,0,1.67,4.1,5.39,5.39,0,0,0,4,1.74H102v3.9H88.48a9,9,0,0,1-7.17-3.06A10.93,10.93,0,0,1,78.82,42a9.12,9.12,0,0,1,2.81-6.81,9.47,9.47,0,0,1,6.89-2.74h19a6.12,6.12,0,0,0-1.9-3.37,5,5,0,0,0-3.48-1.33H83.56V23.88H102a9,9,0,0,1,6.8,2.82,9.68,9.68,0,0,1,2.67,6.89V52.48h-4Z"/><path class="cls-1" d="M122.5,35.9h14a6.53,6.53,0,0,1,5.22,2.34,8.2,8.2,0,0,1,2,5.56,9.48,9.48,0,0,1-1.82,5.93,6.33,6.33,0,0,1-5.4,2.63H116V48.52h19.55q3.82,0,3.83-4.54a4.93,4.93,0,0,0-.85-2.94,3,3,0,0,0-2.61-1.2H122a6.56,6.56,0,0,1-5.23-2.34,8.35,8.35,0,0,1-2-5.61,8.42,8.42,0,0,1,2-5.63A6.51,6.51,0,0,1,122,23.88h20.47V27.8H122.92q-3.83,0-3.83,4a4.93,4.93,0,0,0,.85,2.94,3,3,0,0,0,2.56,1.2"/><polygon class="cls-2" points="152.61 40.49 152.61 52.42 148.66 52.42 148.66 14.62 152.61 14.62 152.61 35.88 177.21 24.33 180.07 24.33 180.07 27.24 156.35 38.19 180.07 49.5 180.07 52.42 177.21 52.42 152.61 40.49"/><path class="cls-2" d="M204.85,43.66h-9.53c0-1.3,0-2.6-.07-3.9h9.6a5.41,5.41,0,0,0,4.32-1.85,7,7,0,0,0,1.39-4.49,5.91,5.91,0,0,0-1.58-4.2,5.25,5.25,0,0,0-4.13-1.61l-13.73.16a4.88,4.88,0,0,0-3.89,1.71,6.14,6.14,0,0,0-1.46,4.11v8.87a6.56,6.56,0,0,0,1.52,4.26,4.86,4.86,0,0,0,4,1.86h20.42v3.9H191.25a9,9,0,0,1-6.87-2.79,9.76,9.76,0,0,1-2.61-6.93V33.41a9.5,9.5,0,0,1,2.55-6.86,9,9,0,0,1,6.8-2.67h14a8.57,8.57,0,0,1,7,3,10.73,10.73,0,0,1,2.37,7.25,9.24,9.24,0,0,1-2.74,6.8,9.38,9.38,0,0,1-6.92,2.73"/><path class="cls-2" d="M220.92,49.44a9.17,9.17,0,0,1-2.76-6.8c0-1.8,0-4.93.05-9.41,0-4,.06-7.07.06-9.35h3.83V42.64a5.44,5.44,0,0,0,1.64,4,5.58,5.58,0,0,0,4.08,1.62h13.41v3.89H227.82a9.42,9.42,0,0,1-6.9-2.73"/><path class="cls-2" d="M241.36,62.66H222.89v-3.9h18.47a5,5,0,0,0,4-1.92,6.29,6.29,0,0,0,1.46-4.19V24l4-.11V53a9.6,9.6,0,0,1-2.68,6.89,9,9,0,0,1-6.8,2.82"/><path class="cls-2" d="M278.32,52.42H265.25a9.09,9.09,0,0,1-6.9-2.94,9.86,9.86,0,0,1-2.76-7V14.62h3.94V42.89a5.39,5.39,0,0,0,1.68,4,5.52,5.52,0,0,0,4,1.64h13.07a4.9,4.9,0,0,0,3.89-1.67,6,6,0,0,0,1.46-4.08V34.25A6.53,6.53,0,0,0,282.15,30a4.84,4.84,0,0,0-3.95-1.87H263.49c0-1.28,0-2.55-.07-3.83l14.77-.06A9,9,0,0,1,285.06,27a9.81,9.81,0,0,1,2.62,7V43.3a8.75,8.75,0,0,1-2.62,6.6,9.3,9.3,0,0,1-6.74,2.52"/><path class="cls-2" d="M321.24,26.68A9.26,9.26,0,0,0,314.43,24H301a9.25,9.25,0,0,0-6.83,2.65,9.13,9.13,0,0,0-2.64,6.76v9.35a9.65,9.65,0,0,0,2.67,6.89,9,9,0,0,0,6.8,2.82h13.67a8.57,8.57,0,0,0,6.65-2.85,9.85,9.85,0,0,0,2.58-6.86V33.42A9.13,9.13,0,0,0,321.24,26.68ZM319.9,42.47a6.58,6.58,0,0,1-1.51,4.25,4.86,4.86,0,0,1-3.95,1.86H301a4.87,4.87,0,0,1-3.95-1.86,6.53,6.53,0,0,1-1.52-4.25V34a6.64,6.64,0,0,1,1.52-4.32A4.89,4.89,0,0,1,301,27.86h13.43a4.88,4.88,0,0,1,3.95,1.85A6.69,6.69,0,0,1,319.9,34Z"/><path class="cls-2" d="M356.06,36.37H337a5.13,5.13,0,0,0-4.21,1.8,7,7,0,0,0-1.5,4.57,5.73,5.73,0,0,0,1.68,4.1,5.38,5.38,0,0,0,4,1.74h13.55v3.9H337a9,9,0,0,1-7.16-3.06,10.93,10.93,0,0,1-2.49-7.4,9.11,9.11,0,0,1,2.8-6.81,9.5,9.5,0,0,1,6.9-2.74h19a6.12,6.12,0,0,0-1.9-3.37,5,5,0,0,0-3.48-1.33H332.12V23.88h18.43a9,9,0,0,1,6.79,2.82A9.64,9.64,0,0,1,360,33.59V52.48h-3.95Z"/><path class="cls-2" d="M370.27,29.63a6.48,6.48,0,0,0-1.55,4.26V52.48h-4V33.59a9.64,9.64,0,0,1,2.67-6.89,8.9,8.9,0,0,1,6.78-2.82h18.43v3.89H374.18a4.88,4.88,0,0,0-3.91,1.86"/><path class="cls-2" d="M423.66,49.48a9.09,9.09,0,0,1-6.9,2.94H403.7A9.31,9.31,0,0,1,397,49.9a8.71,8.71,0,0,1-2.62-6.6V34A9.76,9.76,0,0,1,397,27a9,9,0,0,1,6.86-2.76l14.76.06-.06,3.83H403.8A4.82,4.82,0,0,0,399.86,30a6.48,6.48,0,0,0-1.52,4.25v8.52a6,6,0,0,0,1.45,4.08,4.92,4.92,0,0,0,3.9,1.67h13.07a5.56,5.56,0,0,0,4.05-1.64,5.42,5.42,0,0,0,1.67-4V14.62h3.94V42.47a9.86,9.86,0,0,1-2.76,7"/></g><g id="tm"><path class="cls-3" d="M433.06,22.08V16.52H431v-.75h5v.75H433.9v5.56Z"/><path class="cls-3" d="M436.8,22.08V15.77h1.25l1.49,4.47c.14.41.24.73.3.93l.34-1,1.51-4.39h1.12v6.31H442V16.8l-1.83,5.28h-.76l-1.82-5.37v5.37Z"/></g><g id="chevron_mark" data-name="chevron mark"><polygon class="cls-4" points="14.9 37.26 20.58 31.56 20.58 20.63 0 0 0 22.33 14.9 37.26"/><polygon class="cls-4" points="23.66 32.87 23.66 23.71 32.49 32.55 8.5 56.58 0 56.58 23.66 32.87"/></g></g></g></svg>