<?xml version="1.0" encoding="UTF-8"?><svg xmlns="http://www.w3.org/2000/svg" viewBox="0 0 58 43.82"><defs><style>.d{fill:#d0232a;}</style></defs><g id="a"/><g id="b"><g id="c"><path class="d" d="M16.64,11.84l32.99,3.56c1.15,.12,1.86,1.31,1.43,2.38l-1.49,3.7c-.24,.61-.81,1.02-1.46,1.08l-25.63,2.31c-.8,.07-1.55-.41-1.81-1.17l-4.04-11.87M1.23,0C.7,0,.21,.35,.05,.88c-.19,.65,.18,1.33,.83,1.53l7.97,2.36c.33,.1,.6,.35,.71,.68l.34,1,7.48,21.99-1.54,2.06c-.46,.62-.75,1.32-.88,2.05-.01,.06-.02,.12-.03,.18-.16,1.13,.09,2.32,.74,3.31,.9,1.37,2.41,2.19,4.05,2.19h.9c-.49,.59-.79,1.35-.79,2.19,0,1.88,1.53,3.41,3.41,3.41s3.41-1.53,3.41-3.41c0-.83-.3-1.59-.79-2.19h16.53c-.49,.59-.79,1.35-.79,2.19,0,1.88,1.53,3.41,3.41,3.41s3.41-1.53,3.41-3.41c0-.83-.3-1.59-.79-2.19h2.61c.68,0,1.23-.55,1.23-1.23s-.55-1.23-1.23-1.23H19.72c-.81,0-1.55-.4-2-1.08-.13-.2-.29-.64-.29-.64-.3-1.5,.53-2.89,1.97-4.23l32.15-2.9h.11c.46-.05,.86-.35,1.03-.77l5.22-12.95c.14-.36,.11-.76-.09-1.09-.2-.33-.54-.55-.92-.59l-1.22-.13L12.59,6.73l-.71-2.08c-.37-1.08-1.24-1.92-2.34-2.25L1.58,.05c-.12-.03-.23-.05-.35-.05h0Z"/></g></g></svg>